<svg width="97" height="26" viewBox="0 0 97 26" fill="none" xmlns="http://www.w3.org/2000/svg">
<path d="M15.3759 12.0846C15.3502 9.214 17.7166 7.81743 17.8248 7.75241C16.4846 5.79027 14.4074 5.52217 13.6775 5.5008C11.9329 5.31643 10.2406 6.54912 9.3519 6.54912C8.44545 6.54912 7.07692 5.51861 5.60195 5.54889C3.70391 5.57829 1.92828 6.68183 0.954424 8.39548C-1.05536 11.8896 0.443551 17.0243 2.36908 19.8486C3.33229 21.2318 4.45781 22.7762 5.93455 22.7219C7.37581 22.6622 7.91418 21.7992 9.65346 21.7992C11.3768 21.7992 11.8823 22.7219 13.3848 22.6872C14.9316 22.6622 15.9054 21.2977 16.8349 19.902C17.948 18.3167 18.3951 16.7553 18.4128 16.6751C18.3764 16.6627 15.4088 15.5253 15.3795 12.0846H15.3759Z" fill="white"/>
<path d="M12.5363 3.64195C13.3115 2.66845 13.8418 1.34402 13.6946 0C12.5726 0.0498775 11.1695 0.779337 10.3615 1.73146C9.64666 2.57047 9.00807 3.94567 9.17304 5.23892C10.4334 5.33333 11.7274 4.60031 12.5363 3.64195Z" fill="white"/>
<path d="M36.2331 22.5212H34.2189L33.1155 19.0396H29.2804L28.2294 22.5212H26.2684L30.068 10.6682H32.4149L36.2331 22.5212ZM32.7829 17.5789L31.7851 14.4838C31.6796 14.1676 31.4818 13.423 31.19 12.2509H31.1545C31.0383 12.755 30.8512 13.4996 30.594 14.4838L29.6139 17.5789H32.7829Z" fill="white"/>
<path d="M46.0033 18.1434C46.0033 19.597 45.6121 20.7459 44.8299 21.5894C44.1292 22.3402 43.2591 22.7152 42.2205 22.7152C41.0994 22.7152 40.2941 22.3108 39.8036 21.5021H39.7682V26H37.8772V16.7842C37.8772 15.8704 37.8533 14.9325 37.8071 13.9706H39.4701L39.5757 15.3253H39.6112C40.2418 14.3046 41.1988 13.7951 42.483 13.7951C43.4871 13.7951 44.3252 14.1933 44.9957 14.9904C45.668 15.7885 46.0033 16.8377 46.0033 18.1389V18.1434ZM44.0769 18.2084C44.0769 17.3765 43.8906 16.6907 43.5163 16.151C43.1074 15.5881 42.5584 15.3066 41.8702 15.3066C41.4037 15.3066 40.9832 15.4634 40.601 15.7724C40.2214 16.0842 39.973 16.4912 39.8568 16.9953C39.7983 17.2305 39.769 17.4228 39.769 17.5743V18.9993C39.769 19.621 39.9588 20.1456 40.3384 20.574C40.7181 21.0024 41.2112 21.2162 41.8179 21.2162C42.5301 21.2162 43.0844 20.9401 43.4808 20.3897C43.8782 19.8383 44.0769 19.1116 44.0769 18.2084Z" fill="white"/>
<path d="M55.7914 18.1434C55.7914 19.597 55.4003 20.7459 54.6171 21.5894C53.9173 22.3402 53.0472 22.7152 52.0086 22.7152C50.8876 22.7152 50.0822 22.3108 49.5926 21.5021H49.5572V26H47.6662V16.7842C47.6662 15.8704 47.6423 14.9325 47.5962 13.9706H49.2592L49.3647 15.3253H49.4002C50.0299 14.3046 50.9869 13.7951 52.2721 13.7951C53.2752 13.7951 54.1133 14.1933 54.7856 14.9904C55.4553 15.7885 55.7914 16.8377 55.7914 18.1389V18.1434ZM53.865 18.2084C53.865 17.3765 53.6779 16.6907 53.3036 16.151C52.8947 15.5881 52.3475 15.3066 51.6583 15.3066C51.1909 15.3066 50.7714 15.4634 50.3882 15.7724C50.0086 16.0842 49.7612 16.4912 49.645 16.9953C49.5873 17.2305 49.5572 17.4228 49.5572 17.5743V18.9993C49.5572 19.621 49.747 20.1456 50.1248 20.574C50.5044 21.0016 50.9975 21.2162 51.606 21.2162C52.3182 21.2162 52.8725 20.9401 53.269 20.3897C53.6663 19.8383 53.865 19.1116 53.865 18.2084Z" fill="white"/>
<path d="M66.7381 19.1983C66.7381 20.2065 66.3895 21.0268 65.6897 21.6601C64.9208 22.3521 63.8502 22.6977 62.4746 22.6977C61.2045 22.6977 60.1863 22.4519 59.4156 21.9593L59.8537 20.3766C60.6839 20.8807 61.5948 21.1337 62.5872 21.1337C63.2994 21.1337 63.8538 20.9716 64.252 20.6492C64.6485 20.3267 64.8462 19.8939 64.8462 19.3541C64.8462 18.8732 64.6831 18.4679 64.3558 18.1393C64.0303 17.8106 63.4866 17.5051 62.7274 17.2228C60.6608 16.4488 59.6284 15.3149 59.6284 13.824C59.6284 12.8496 59.9903 12.0506 60.7149 11.429C61.4369 10.8064 62.4001 10.4955 63.6045 10.4955C64.6786 10.4955 65.5709 10.6835 66.2831 11.0584L65.8103 12.6064C65.1451 12.243 64.393 12.0613 63.5513 12.0613C62.8861 12.0613 62.3664 12.2261 61.9939 12.5539C61.679 12.8469 61.5211 13.2041 61.5211 13.6271C61.5211 14.0956 61.7012 14.4831 62.0631 14.7877C62.3779 15.0691 62.95 15.3737 63.7802 15.7024C64.7957 16.113 65.5416 16.5931 66.0214 17.1435C66.4995 17.6921 66.7381 18.3789 66.7381 19.1983Z" fill="white"/>
<path d="M72.9921 15.4023H70.9078V19.5519C70.9078 20.6074 71.275 21.1346 72.0111 21.1346C72.3491 21.1346 72.6293 21.1052 72.8511 21.0465L72.9034 22.4885C72.5309 22.6283 72.0404 22.6987 71.4329 22.6987C70.6861 22.6987 70.1025 22.4698 69.6812 22.0128C69.2617 21.555 69.0506 20.7873 69.0506 19.7087V15.4005H67.8089V13.9754H69.0506V12.4105L70.9078 11.8476V13.9754H72.9921V15.4023Z" fill="white"/>
<path d="M82.393 18.1804C82.393 19.4941 82.0187 20.5727 81.2719 21.4162C80.4888 22.2846 79.4493 22.7175 78.1535 22.7175C76.9047 22.7175 75.9104 22.3015 75.169 21.4697C74.4275 20.6378 74.0567 19.5877 74.0567 18.322C74.0567 16.9976 74.4381 15.9128 75.2035 15.0693C75.9672 14.2249 76.9978 13.8028 78.2936 13.8028C79.5424 13.8028 80.5473 14.2187 81.3056 15.0515C82.0311 15.8593 82.393 16.9023 82.393 18.1804ZM80.4311 18.2419C80.4311 17.4536 80.2635 16.7776 79.9238 16.2138C79.5273 15.5316 78.9606 15.1913 78.2262 15.1913C77.4661 15.1913 76.8887 15.5324 76.4923 16.2138C76.1526 16.7785 75.9849 17.4652 75.9849 18.2775C75.9849 19.0657 76.1526 19.7418 76.4923 20.3047C76.9011 20.9869 77.4723 21.3271 78.2094 21.3271C78.9313 21.3271 79.4981 20.9798 79.9069 20.2868C80.2555 19.7124 80.4311 19.0292 80.4311 18.2419Z" fill="white"/>
<path d="M88.5396 15.6467C88.3525 15.612 88.1529 15.5941 87.9436 15.5941C87.2784 15.5941 86.764 15.8462 86.4021 16.3512C86.0872 16.7966 85.9294 17.3595 85.9294 18.039V22.528H84.0393L84.057 16.6727C84.057 15.6877 84.0331 14.7908 83.9861 13.9829H85.6331L85.7023 15.6182H85.7546C85.9542 15.0562 86.2691 14.6037 86.7001 14.2644C87.1214 13.9589 87.5764 13.8066 88.0669 13.8066C88.2416 13.8066 88.3995 13.819 88.5396 13.8413V15.652V15.6467Z" fill="white"/>
<path d="M97 17.8443C97 18.1845 96.9778 18.4713 96.9308 18.7056H91.258C91.2802 19.5499 91.5542 20.1957 92.0811 20.641C92.5591 21.0391 93.1773 21.2386 93.9365 21.2386C94.7765 21.2386 95.5428 21.1041 96.2319 20.8343L96.5281 22.1525C95.7228 22.5052 94.772 22.6806 93.6749 22.6806C92.3551 22.6806 91.3192 22.2905 90.5653 21.5112C89.8132 20.7318 89.4362 19.6853 89.4362 18.3725C89.4362 17.0837 89.7866 16.0104 90.4881 15.1545C91.2225 14.2406 92.215 13.7837 93.4638 13.7837C94.6904 13.7837 95.619 14.2406 96.2496 15.1545C96.749 15.8804 97 16.7782 97 17.8443ZM95.1969 17.3517C95.2093 16.7888 95.086 16.3025 94.8297 15.8919C94.5024 15.3638 93.9995 15.1001 93.3228 15.1001C92.7046 15.1001 92.2017 15.3575 91.8176 15.8741C91.5028 16.2847 91.3156 16.7773 91.258 17.3509L95.1969 17.3517Z" fill="white"/>
<path d="M27.1666 0.941073C27.368 0.819941 27.595 0.718405 27.8504 0.634682C28.105 0.550959 28.4048 0.509097 28.7498 0.509097C29.3059 0.509097 29.744 0.641807 30.0651 0.906336C30.3862 1.17087 30.5467 1.52802 30.5467 1.97781C30.5467 2.33497 30.4394 2.63424 30.2248 2.87739C30.0101 3.11965 29.7352 3.28086 29.4026 3.36102V3.38685C29.5862 3.41624 29.76 3.46612 29.9232 3.53827C30.0873 3.61041 30.231 3.7066 30.3534 3.82773C30.4767 3.94887 30.5742 4.08959 30.6461 4.25169C30.717 4.4129 30.7534 4.59104 30.7534 4.78788C30.7534 5.1103 30.6886 5.38106 30.5591 5.60017C30.4296 5.81927 30.2611 5.99741 30.0518 6.13635C29.8434 6.27441 29.6092 6.37416 29.3511 6.43384C29.093 6.49351 28.8349 6.52468 28.5768 6.52468C28.301 6.52468 28.0287 6.49529 27.7591 6.43829C27.4895 6.38129 27.2402 6.28598 27.0105 6.15327L27.2429 5.43629C27.3919 5.5111 27.5844 5.58325 27.8194 5.65272C28.0544 5.72219 28.2921 5.75604 28.5334 5.75604C28.929 5.75604 29.2349 5.66697 29.4496 5.48883C29.6642 5.30981 29.7724 5.07111 29.7724 4.77184C29.7724 4.56966 29.729 4.40489 29.6429 4.27485C29.556 4.14481 29.4443 4.04328 29.3068 3.96757C29.1693 3.89275 29.0159 3.84109 28.8465 3.81259C28.6771 3.78409 28.5094 3.76895 28.3436 3.76895H27.956V3.05909H28.3436C28.521 3.05909 28.6859 3.03682 28.8385 2.98961C28.9902 2.94419 29.1223 2.87917 29.2341 2.79545C29.3458 2.71172 29.4336 2.61197 29.4966 2.49707C29.5587 2.38218 29.5906 2.25214 29.5906 2.10785C29.5906 1.84867 29.4984 1.64559 29.3148 1.49863C29.1312 1.35167 28.8846 1.27775 28.5751 1.27775C28.3631 1.27775 28.1502 1.31248 27.9383 1.38106C27.7263 1.45054 27.5365 1.52535 27.3697 1.60551L27.1666 0.941073Z" fill="white"/>
<path d="M34.5557 6.42589L34.4874 5.94225H34.4617C34.1814 6.32791 33.7743 6.52119 33.2404 6.52119C33.0506 6.52119 32.8794 6.48913 32.7242 6.42589C32.569 6.36265 32.4342 6.27626 32.3197 6.1667C32.2044 6.05715 32.1166 5.928 32.0528 5.77748C31.9898 5.62785 31.9588 5.46307 31.9588 5.28494C31.9588 4.76123 32.1707 4.36755 32.5956 4.10569C33.0204 3.84384 33.6218 3.71291 34.4023 3.71291V3.63542C34.4023 3.08231 34.1131 2.8062 33.5348 2.8062C33.1224 2.8062 32.7588 2.91041 32.4448 3.11705L32.2559 2.50427C32.6399 2.2629 33.118 2.14176 33.6901 2.14176C34.7836 2.14176 35.3309 2.7207 35.3309 3.87857V5.42477C35.3309 5.85675 35.3513 6.19075 35.3912 6.42678L34.5557 6.42589ZM34.4271 4.33548C33.9082 4.33548 33.5215 4.40139 33.2679 4.5341C33.0142 4.66681 32.8874 4.88325 32.8874 5.18251C32.8874 5.40162 32.9468 5.5655 33.0665 5.67505C33.1863 5.78461 33.3379 5.83894 33.5206 5.83894C33.6404 5.83894 33.7539 5.81756 33.863 5.77392C33.9712 5.73117 34.0661 5.67149 34.1486 5.59667C34.232 5.52186 34.2985 5.43101 34.3508 5.32413C34.4023 5.21725 34.4271 5.10413 34.4271 4.983V4.33548Z" fill="white"/>
<path d="M39.813 2.22809V2.99674H38.0746V6.42671H37.1459V2.22809H39.813Z" fill="white"/>
<path d="M45.1297 4.2767C45.1297 4.6107 45.0836 4.9162 44.9922 5.19231C44.9 5.46931 44.7731 5.70534 44.6091 5.90039C44.4459 6.09634 44.2507 6.24954 44.0246 6.3582C43.7975 6.46775 43.5474 6.52297 43.2716 6.52297C42.7208 6.52297 42.3252 6.32435 42.084 5.92711H42.0662V8.13865H41.1367V3.61137C41.1367 3.38692 41.1341 3.16069 41.1279 2.93268C41.1225 2.70556 41.1137 2.47042 41.103 2.22816H41.9199L41.9722 2.89349H41.99C42.2995 2.39293 42.7696 2.14176 43.4011 2.14176C43.6467 2.14176 43.8756 2.19342 44.0849 2.29674C44.2942 2.40095 44.476 2.54613 44.6312 2.73317C44.7864 2.92021 44.908 3.14466 44.9967 3.40741C45.0853 3.67015 45.1297 3.95962 45.1297 4.2767ZM44.1842 4.31144C44.1842 4.10391 44.1594 3.91242 44.1106 3.73695C44.0618 3.56149 43.99 3.41186 43.896 3.28806C43.802 3.16425 43.6866 3.06628 43.5518 2.99414C43.417 2.92199 43.2662 2.88636 43.0995 2.88636C42.9682 2.88636 42.8387 2.91576 42.7119 2.97276C42.5851 3.02976 42.4751 3.10814 42.3811 3.20612C42.2862 3.30409 42.2108 3.42255 42.1531 3.5606C42.0955 3.69866 42.0662 3.84562 42.0662 4.00148V4.70155C42.0662 4.85653 42.0902 5.00082 42.1398 5.13353C42.1886 5.26624 42.2569 5.38113 42.3456 5.47911C42.4343 5.57708 42.5407 5.65368 42.664 5.70801C42.7873 5.76323 42.923 5.78995 43.072 5.78995C43.4223 5.78995 43.6946 5.65635 43.8898 5.38826C44.0849 5.12017 44.1842 4.76033 44.1842 4.31144Z" fill="white"/>
<path d="M50.1176 2.22809L49.0586 5.1397C48.8067 5.83086 48.561 6.39643 48.3233 6.83731C48.0847 7.2782 47.8577 7.59884 47.6395 7.80102C47.3184 8.08871 46.977 8.26506 46.6151 8.32741L46.3916 7.54183C46.632 7.4786 46.8617 7.35479 47.0799 7.17042C47.2972 6.98606 47.4719 6.75626 47.6049 6.47926C47.651 6.38753 47.6732 6.32429 47.6732 6.28955C47.6732 6.25482 47.6555 6.18891 47.6218 6.09093L46.1069 2.22899H47.1304L47.9224 4.57056C47.9632 4.68011 48.0031 4.80391 48.0431 4.94197C48.0839 5.08002 48.1264 5.23322 48.1726 5.39977H48.1903C48.2187 5.30714 48.2506 5.19136 48.2843 5.04974C48.3189 4.90901 48.365 4.74602 48.4218 4.56165L49.1278 2.22899L50.1176 2.22809Z" fill="white"/>
<path d="M51.7313 3.97298H52.1605C52.4754 3.97298 52.7202 3.91598 52.8914 3.80019C53.0625 3.68441 53.1495 3.54368 53.1495 3.37623C53.1495 3.20344 53.0767 3.06539 52.9295 2.96207C52.784 2.85875 52.5809 2.8062 52.3228 2.8062C52.1561 2.8062 51.9885 2.83382 51.8208 2.88815C51.6514 2.94337 51.4953 3.01106 51.3517 3.09122L51.1113 2.48734C51.3517 2.35553 51.5911 2.26468 51.8306 2.21569C52.0683 2.1667 52.3069 2.14176 52.5481 2.14176C52.7388 2.14176 52.9295 2.16047 53.1211 2.19788C53.3118 2.23528 53.483 2.29852 53.632 2.38759C53.781 2.47666 53.9042 2.59333 53.9974 2.73762C54.0923 2.88191 54.1393 3.06005 54.1393 3.27381C54.1393 3.40652 54.1136 3.52319 54.0612 3.62384C54.0107 3.72449 53.9415 3.81355 53.8555 3.89104C53.7703 3.96853 53.6736 4.03266 53.5681 4.08075C53.4626 4.12974 53.3535 4.16626 53.2461 4.18942V4.21524C53.3827 4.23306 53.5167 4.26779 53.6461 4.31945C53.7748 4.37111 53.8901 4.4388 53.9947 4.52253C54.0967 4.60625 54.1801 4.70689 54.2439 4.82446C54.306 4.94292 54.3371 5.07652 54.3371 5.22616C54.3371 5.47376 54.2785 5.68129 54.157 5.84784C54.0373 6.01529 53.883 6.14711 53.6958 6.24508C53.5104 6.34306 53.3047 6.41342 53.0812 6.45706C52.8577 6.49981 52.6395 6.52208 52.4284 6.52208C52.1703 6.52208 51.914 6.49447 51.663 6.44014C51.4102 6.38492 51.1831 6.3003 50.9818 6.18541L51.2239 5.57174C51.3729 5.65279 51.5423 5.72048 51.7348 5.77481C51.9273 5.82914 52.1233 5.85675 52.3237 5.85675C52.6386 5.85675 52.8816 5.79529 53.051 5.67149C53.2186 5.54769 53.3038 5.3936 53.3038 5.20923C53.3038 5.0881 53.2763 4.98657 53.2186 4.90284C53.161 4.81912 53.0803 4.75143 52.9783 4.69977C52.8745 4.64811 52.7548 4.61159 52.6164 4.592C52.4798 4.57151 52.3291 4.56172 52.1694 4.56172H51.7313V3.97298Z" fill="white"/>
<path d="M56.6935 2.22988V3.71551C56.6935 4.05575 56.6881 4.36125 56.6757 4.63112C56.6633 4.90189 56.65 5.1869 56.6323 5.48617L56.65 5.50309C56.7591 5.28398 56.8664 5.07022 56.972 4.85914C57.0793 4.64894 57.1866 4.43429 57.2957 4.21518L58.3281 2.22809H59.5316V6.42671H58.6536V4.94108C58.6536 4.63023 58.6624 4.31939 58.6758 4.00854C58.6899 3.69681 58.705 3.38329 58.7228 3.06622H58.6793C58.5826 3.3254 58.4851 3.54985 58.3866 3.74045C58.2899 3.93017 58.1924 4.12611 58.0957 4.3283C57.9174 4.67388 57.7409 5.01946 57.5653 5.36504C57.3906 5.71062 57.2052 6.0651 57.011 6.42761H55.8074V2.22988H56.6935Z" fill="white"/>
<path d="M64.4334 2.22809V2.99674H63.1651V6.42671H62.2515V2.99674H60.9832V2.22809H64.4334Z" fill="white"/>
<path d="M69.1774 4.12949C69.1774 4.20965 69.1739 4.28625 69.1685 4.3584C69.1632 4.43054 69.1544 4.49556 69.1428 4.55256H66.3552C66.3676 4.9498 66.4918 5.25708 66.7295 5.47263C66.9672 5.68817 67.282 5.79683 67.6714 5.79683C68.0785 5.79683 68.4546 5.73092 68.7987 5.59821L68.9441 6.24662C68.5477 6.41941 68.0812 6.5058 67.541 6.5058C67.2155 6.5058 66.9228 6.45503 66.6647 6.35439C66.4066 6.25374 66.1884 6.11124 66.0102 5.92687C65.8337 5.7425 65.6962 5.52072 65.6013 5.26154C65.5082 5.00235 65.4612 4.71199 65.4612 4.38957C65.4612 4.06715 65.5082 3.76877 65.6013 3.4989C65.6962 3.22546 65.8301 2.98765 66.0013 2.78636C66.1743 2.58418 66.3827 2.42653 66.6248 2.31075C66.8687 2.19585 67.141 2.13796 67.439 2.13796C67.7024 2.13796 67.941 2.18516 68.1583 2.28046C68.373 2.37487 68.5566 2.51026 68.7073 2.68661C68.8599 2.86207 68.9761 3.07316 69.0559 3.3172C69.1375 3.56125 69.1774 3.83379 69.1774 4.13306V4.12949ZM68.2905 3.89169C68.2905 3.56303 68.2124 3.29672 68.0546 3.09275C67.8967 2.88879 67.6687 2.78547 67.3707 2.78547C67.1002 2.78547 66.8723 2.88879 66.6833 3.09632C66.4944 3.30384 66.3853 3.56837 66.3561 3.89169H68.2905Z" fill="white"/>
<path d="M72.9202 2.26246C73.0869 2.23396 73.298 2.2108 73.5561 2.19299C73.8142 2.17517 74.0776 2.16716 74.3481 2.16716C74.5193 2.16716 74.7136 2.17784 74.9282 2.19744C75.1428 2.21703 75.3495 2.26335 75.5428 2.33549C75.7389 2.40764 75.9012 2.51541 76.0333 2.6597C76.1655 2.80398 76.2329 2.99904 76.2329 3.24665C76.2329 3.37401 76.2089 3.48802 76.1637 3.58777C76.1167 3.68842 76.0564 3.7766 75.9783 3.85141C75.9003 3.92623 75.8116 3.98858 75.7114 4.03667C75.6111 4.08566 75.5074 4.12218 75.3974 4.14444L75.4063 4.17027C75.7096 4.22193 75.957 4.33148 76.146 4.49893C76.3349 4.66638 76.4298 4.89617 76.4298 5.19009C76.4298 5.48401 76.3482 5.71737 76.1894 5.89016C76.028 6.06295 75.8311 6.19298 75.5952 6.27938C75.3593 6.36577 75.1118 6.421 74.8501 6.44415C74.5903 6.46642 74.3561 6.47889 74.1504 6.47889C73.9198 6.47889 73.6945 6.47355 73.4745 6.46108C73.2528 6.4495 73.0692 6.43792 72.9202 6.42634V2.26246ZM73.816 3.9387H74.2887C74.4324 3.9387 74.569 3.9289 74.6976 3.90842C74.8271 3.88882 74.9397 3.85676 75.0373 3.814C75.1357 3.77036 75.2102 3.71336 75.2661 3.64121C75.3202 3.56907 75.3477 3.48178 75.3477 3.37758C75.3477 3.18786 75.2697 3.04803 75.11 2.95896C74.9521 2.86989 74.7047 2.82536 74.3668 2.82536C74.2701 2.82536 74.1849 2.82803 74.1122 2.83427C74.0413 2.83961 73.9428 2.84852 73.816 2.8601V3.9387ZM73.816 5.79575C73.9304 5.80732 74.0271 5.81534 74.1034 5.82158C74.1814 5.82781 74.271 5.83048 74.3756 5.83048C74.5025 5.83048 74.6302 5.82247 74.7623 5.80465C74.8936 5.78773 75.0151 5.75478 75.1242 5.70579C75.2333 5.65769 75.3202 5.59178 75.3859 5.50806C75.4515 5.42523 75.4861 5.31478 75.4861 5.17762C75.4861 4.93714 75.3788 4.77148 75.1677 4.67974C74.9548 4.588 74.6692 4.54257 74.3065 4.54257H73.816V5.79575Z" fill="white"/>
</svg>
