<svg width="111" height="26" viewBox="0 0 111 26" fill="none" xmlns="http://www.w3.org/2000/svg">
<path d="M55.7354 14.2263C53.4886 14.2368 51.6757 16.059 51.6824 18.2976C51.6891 20.5372 53.5144 22.3469 55.7613 22.3441C58.0082 22.3403 59.8268 20.5247 59.8268 18.2852C59.8421 17.2003 59.4157 16.1564 58.6444 15.3915C57.8731 14.6265 56.8229 14.2063 55.7354 14.2263ZM55.7354 20.7492C54.7227 20.8198 53.7703 20.2659 53.3324 19.3529C52.8945 18.4399 53.0612 17.3531 53.753 16.6129C54.4448 15.8718 55.5199 15.6283 56.4646 15.9969C57.4093 16.3656 58.0321 17.2738 58.035 18.2852C58.0666 18.9184 57.8395 19.5363 57.4065 20.0004C56.9734 20.4646 56.3707 20.7339 55.7354 20.7492ZM46.815 14.2263C44.5672 14.2321 42.7486 16.0514 42.7524 18.2919C42.7562 20.5324 44.5796 22.346 46.8275 22.3441C49.0753 22.3422 50.8967 20.5257 50.8967 18.2852C50.9121 17.2003 50.4857 16.1564 49.7144 15.3915C48.9431 14.6265 47.8929 14.2063 46.8054 14.2263H46.815ZM46.815 20.7492C45.8022 20.8237 44.846 20.2726 44.4052 19.3606C43.9645 18.4485 44.1283 17.3598 44.8192 16.6177C45.509 15.8747 46.585 15.6283 47.5317 15.9969C48.4784 16.3656 49.1021 17.2729 49.105 18.2852C49.1366 18.9184 48.9095 19.5363 48.4764 20.0004C48.0434 20.4646 47.4407 20.7339 46.8054 20.7492H46.815ZM36.189 17.1965H40.3283C40.2631 18.0063 39.9259 18.7704 39.3701 19.3644C38.5327 20.2144 37.3743 20.6728 36.1795 20.625C33.6394 20.625 31.5803 18.5727 31.5803 16.0409C31.5803 13.5091 33.6394 11.4567 36.1795 11.4567C37.3465 11.4376 38.4733 11.8808 39.3126 12.6887L40.5295 11.4758C39.3845 10.3202 37.8189 9.67561 36.189 9.68993C33.8693 9.60016 31.6857 10.7825 30.4995 12.7709C29.3123 14.7592 29.3123 17.2366 30.4995 19.2249C31.6867 21.2133 33.8693 22.3956 36.189 22.3059C37.8486 22.3804 39.4592 21.7367 40.6061 20.5391C41.6103 19.4398 42.1459 17.9949 42.1009 16.5088C42.1037 16.1469 42.0721 15.7859 42.0051 15.4297H36.189V17.1965ZM79.6031 16.8145C79.0915 15.3141 77.7041 14.2846 76.1154 14.2263C75.0557 14.2244 74.0429 14.659 73.3167 15.4287C72.5904 16.1975 72.2167 17.2318 72.2828 18.2852C72.2589 19.3634 72.6766 20.4054 73.4393 21.1694C74.202 21.9353 75.2445 22.3584 76.3233 22.3422C77.6849 22.3498 78.9592 21.6746 79.7152 20.5467L78.3259 19.5917C77.9043 20.2927 77.1435 20.7205 76.3233 20.7186C75.4744 20.7511 74.6916 20.2621 74.3495 19.4866L79.8015 17.2423L79.6002 16.8125L79.6031 16.8145ZM74.0429 18.1687C74.0037 17.5718 74.2068 16.9844 74.6073 16.5394C75.0078 16.0934 75.575 15.8279 76.1701 15.8002C76.8015 15.7591 77.3974 16.0972 77.6839 16.6597L74.0429 18.1687ZM69.6162 22.1034H71.408V10.1655H69.6162V22.1034ZM66.6843 15.1317H66.6172C66.0711 14.5233 65.2902 14.1767 64.471 14.1767C62.2959 14.2817 60.5866 16.0695 60.5866 18.2403C60.5866 20.4111 62.2959 22.1989 64.471 22.304C65.2931 22.3173 66.0787 21.9678 66.6172 21.3489H66.6747V22.0079C66.6747 23.5646 65.8411 24.3955 64.4997 24.3955C63.5856 24.3745 62.776 23.8043 62.4492 22.9534L60.8874 23.6028C61.4892 25.0611 62.9178 26.0095 64.4997 25.9999C66.5981 25.9999 68.3323 24.7679 68.3323 21.7691V14.4632H66.6843V15.1317ZM64.6338 20.7473C63.3528 20.6346 62.3697 19.5649 62.3697 18.2833C62.3697 17.0016 63.3528 15.932 64.6338 15.8193C65.2528 15.8508 65.8325 16.1307 66.2426 16.5938C66.6517 17.058 66.8568 17.6663 66.8089 18.2833C66.8615 18.9021 66.6584 19.5153 66.2455 19.9813C65.8325 20.4464 65.2471 20.7234 64.6243 20.7473H64.6338ZM87.9937 10.1655H83.7107V22.1034H85.5025V17.5766H88.0033C89.3955 17.674 90.7254 16.9892 91.4507 15.8002C92.176 14.6112 92.1741 13.1194 91.4459 11.9323C90.7178 10.7452 89.3849 10.0633 87.9937 10.1655ZM87.9947 15.8957H85.4939V11.8273H88.033C89.1655 11.8273 90.0834 12.7422 90.0834 13.8711C90.0834 14.9999 89.1655 15.9148 88.033 15.9148L87.9947 15.8957ZM99.0422 14.1767C97.7094 14.0974 96.4561 14.8137 95.8515 16.0008L97.4421 16.6597C97.7621 16.0714 98.4002 15.7267 99.0709 15.7811C99.5309 15.7276 99.9917 15.8604 100.353 16.1498C100.713 16.4391 100.942 16.8603 100.987 17.3187V17.4429C100.411 17.1392 99.7704 16.9816 99.1189 16.9844C97.4038 16.9844 95.6695 17.9395 95.6695 19.6681C95.704 20.413 96.0384 21.1121 96.5979 21.6068C97.1575 22.1015 97.8934 22.3498 98.6398 22.2944C99.5586 22.3603 100.441 21.921 100.939 21.1484H100.997V22.1034H102.722V17.5097C102.722 15.4182 101.131 14.2053 99.0901 14.2053L99.0422 14.1767ZM98.8218 20.7186C98.1578 20.8113 97.5398 20.3643 97.4229 19.7063C97.4229 18.7513 98.4386 18.4361 99.3392 18.4361C99.9084 18.4218 100.471 18.5602 100.968 18.8372C100.845 19.9059 99.9496 20.7215 98.8697 20.7473L98.8218 20.7186ZM109.007 14.4632L106.957 19.6394H106.899L104.772 14.4632H102.856L106.046 21.7023L104.226 25.723H106.094L111 14.4632H109.007ZM92.9004 22.1034H94.6922V10.1655H92.9004V22.1034Z" fill="white"/>
<path d="M0.450469 0.654639C0.13811 1.02806 -0.0190282 1.50653 0.00971648 1.99168V23.1169C-0.0190282 23.6021 0.13811 24.0815 0.450469 24.454L0.51754 24.5208L12.3891 12.6976V12.4111L0.51754 0.587787L0.450469 0.654639Z" fill="white"/>
<path d="M16.3162 16.6427L12.3878 12.6985V12.412L16.3162 8.46769L16.4024 8.51544L21.107 11.18C22.4484 11.9344 22.4484 13.176 21.107 13.94L16.4216 16.595L16.3162 16.6427Z" fill="white"/>
<path d="M16.4329 16.5858L12.3895 12.5555L0.450469 24.454C1.01482 24.9487 1.85171 24.9738 2.44385 24.5125L16.4425 16.5858H16.4329Z" fill="white"/>
<path d="M16.4311 8.52637L2.43238 0.599627C1.84024 0.138348 1.00377 0.162224 0.439418 0.656929L12.3876 12.5566L16.4311 8.52637Z" fill="white"/>
<path d="M16.318 16.4999L2.43427 24.3789C1.86608 24.802 1.08614 24.802 0.517952 24.3789L0.450881 24.4458L0.517952 24.5126C1.08518 24.9395 1.86704 24.9395 2.43427 24.5126L16.4329 16.5858L16.318 16.4999Z" fill="white"/>
<path d="M0.450469 24.3204C0.13811 23.947 -0.0190282 23.4685 0.00971648 22.9834V23.1266C-0.0190282 23.6118 0.13811 24.0912 0.450469 24.4637L0.51754 24.3968L0.450469 24.3204Z" fill="white"/>
<path d="M21.1091 13.7971L16.318 16.4999L16.4046 16.5858L21.1091 13.9308C21.6524 13.6767 22.0174 13.1515 22.0673 12.5555C21.958 13.0951 21.6045 13.5535 21.1091 13.7971Z" fill="white"/>
<path d="M2.43372 0.731922L21.1082 11.3137C21.6036 11.5572 21.958 12.0159 22.0673 12.5555C22.0174 11.9596 21.6503 11.434 21.107 11.18L2.43372 0.598218C1.0923 -0.156255 0 0.474064 0 2.00211V2.14537C0.0287447 0.607768 1.10188 -0.0225514 2.43372 0.731922Z" fill="white"/>
<path d="M30.7964 7.08398H30.097V5.17392H30.691C31.2487 4.58562 31.515 3.78053 31.4192 2.97735V0.140917H35.2518V5.16437H35.8651V7.07443H35.156V5.87109H30.7964V7.08398ZM32.1282 3.00601C32.1733 3.77671 31.9826 4.54169 31.5821 5.20257H34.4566V0.847639H32.1282V3.00601Z" fill="white"/>
<path d="M41.6222 5.12469C40.4561 6.28028 38.5724 6.28028 37.4063 5.12469C36.2757 3.93186 36.2757 2.06764 37.4063 0.874807C37.9639 0.31516 38.7228 0 39.5142 0C40.3057 0 41.0645 0.31516 41.6222 0.874807C42.7576 2.06573 42.7576 3.93377 41.6222 5.12469ZM37.9524 4.64717C38.8157 5.50479 40.2127 5.50479 41.076 4.64717C41.924 3.71507 41.924 2.29398 41.076 1.36187C40.2127 0.504256 38.8157 0.504256 37.9524 1.36187C37.1045 2.29398 37.1045 3.71507 37.9524 4.64717Z" fill="white"/>
<path d="M46.192 5.9958C45.3929 6.01204 44.6216 5.70165 44.0572 5.13723C43.4929 4.57281 43.1844 3.80306 43.2026 3.00656C43.1844 2.21007 43.4929 1.44031 44.0572 0.87589C44.6216 0.311467 45.3929 0.00108222 46.192 0.0173177C47.0045 -0.0027379 47.7806 0.348713 48.3 0.972348L47.7826 1.46896C47.3983 0.982853 46.8024 0.712579 46.1824 0.74314C45.5884 0.72786 45.0135 0.955157 44.5919 1.37346C43.7305 2.3113 43.7305 3.74957 44.5919 4.68741C45.0135 5.10572 45.5884 5.33301 46.1824 5.31773C46.8656 5.312 47.5095 4.99971 47.9359 4.46776L48.4533 4.98347C48.1926 5.29863 47.865 5.55267 47.4951 5.7284C47.086 5.91272 46.6414 6.0044 46.192 5.9958Z" fill="white"/>
<path d="M51.4617 5.8711H50.7239V0.847639H49.1142V0.140917H53.0618V0.847639H51.4617V5.8711Z" fill="white"/>
<path d="M58.1418 0.140917L55.9667 4.97337C55.7885 5.5588 55.2587 5.96851 54.6445 5.99525C54.4461 5.99238 54.2507 5.95036 54.0696 5.8711L54.2612 5.19302C54.3781 5.26083 54.5094 5.29712 54.6445 5.29808C54.7853 5.30858 54.9262 5.27516 55.0469 5.20257C55.1619 5.10516 55.251 4.98005 55.3056 4.83966L55.5164 4.38125L53.6001 0.150467H54.472L55.8901 3.43577L57.2698 0.140917H58.1418Z" fill="white"/>
<path d="M58.975 5.8711V0.140917H63.1334V5.8711H62.3956V0.847639H59.7128V5.8711H58.975Z" fill="white"/>
<path d="M64.4442 5.8711V0.140917H65.1819V2.59534H68.0564V0.140917H68.7942V5.8711H68.0564V3.28296H65.1819V5.8711H64.4442Z" fill="white"/>
<path d="M74.8218 5.12469C73.6557 6.28028 71.772 6.28028 70.6059 5.12469C69.4753 3.93186 69.4753 2.06764 70.6059 0.874807C71.1636 0.31516 71.9224 0 72.7139 0C73.5053 0 74.2641 0.31516 74.8218 0.874807C75.9572 2.06573 75.9572 3.93377 74.8218 5.12469ZM71.1521 4.64717C72.0154 5.50479 73.4123 5.50479 74.2756 4.64717C75.1236 3.71507 75.1236 2.29398 74.2756 1.36187C73.4123 0.504256 72.0154 0.504256 71.1521 1.36187C70.3041 2.29398 70.3041 3.71507 71.1521 4.64717Z" fill="white"/>
<path d="M78.6839 5.86762V0.137442H80.7631C81.1952 0.128847 81.6129 0.286427 81.932 0.576756C82.2559 0.857535 82.4389 1.26629 82.4303 1.69414C82.435 1.94913 82.3613 2.1984 82.2195 2.41041C82.0786 2.61574 81.8831 2.7781 81.6541 2.87838C81.932 2.97006 82.1754 3.14292 82.3536 3.37499C82.5376 3.60897 82.6363 3.8993 82.6315 4.19632C82.641 4.64232 82.4513 5.06921 82.1141 5.36145C81.7806 5.66802 81.3418 5.8361 80.8876 5.82942H78.6934L78.6839 5.86762ZM79.4216 2.59187H80.7631C81.017 2.60237 81.2623 2.50114 81.4338 2.31491C81.6053 2.16019 81.7059 1.94245 81.7136 1.71133C81.7212 1.48117 81.634 1.25769 81.4721 1.09247C81.3102 0.910061 81.0745 0.807873 80.8301 0.815513H79.46V2.56322L79.4216 2.59187ZM79.4216 5.1609H80.9068C81.1693 5.16949 81.4223 5.06157 81.5967 4.86484C81.7653 4.69007 81.8611 4.458 81.8649 4.21542C81.8649 3.68824 81.4357 3.26039 80.9068 3.26039H79.4504V5.17045L79.4216 5.1609Z" fill="white"/>
</svg>
